HIERARCHY
ROOT hip
{
  OFFSET 0 0 0
  CHANNELS 6 Xposition Yposition Zposition Zrotation Yrotation Xrotation
  JOINT abdomen
  {
    OFFSET 0 20.6881 -0.73152
    CHANNELS 3 Zrotation Xrotation Yrotation
    JOINT chest
    {
      OFFSET 0 11.7043 -0.48768
      CHANNELS 3 Zrotation Xrotation Yrotation
      JOINT neck
      {
        OFFSET 0 22.1894 -2.19456
        CHANNELS 3 Zrotation Xrotation Yrotation
        JOINT head
        {
          OFFSET -0.24384 7.07133 1.2192
          CHANNELS 3 Zrotation Xrotation Yrotation
          JOINT leftEye
          {
            OFFSET 4.14528 8.04674 8.04672
            CHANNELS 3 Zrotation Xrotation Yrotation
            End Site
            {
              OFFSET 1 0 0
            }
          }
          JOINT rightEye
          {
            OFFSET -3.6576 8.04674 8.04672
            CHANNELS 3 Zrotation Xrotation Yrotation
            End Site
            {
              OFFSET 1 0 0
            }
          }
        }
      }
      JOINT rCollar
      {
        OFFSET -2.68224 19.2634 -4.8768
        CHANNELS 3 Zrotation Xrotation Yrotation
        JOINT rShldr
        {
          OFFSET -8.77824 -1.95073 1.46304
          CHANNELS 3 Zrotation Xrotation Yrotation
          JOINT rForeArm
          {
            OFFSET -28.1742 -1.7115 0.48768
            CHANNELS 3 Zrotation Xrotation Yrotation
            JOINT rHand
            {
              OFFSET -22.5879 0.773209 7.07136
              CHANNELS 3 Zrotation Xrotation Yrotation
              JOINT rThumb1
              {
                OFFSET -1.2192 -0.487915 3.41376
                CHANNELS 3 Zrotation Xrotation Yrotation
                JOINT rThumb2
                {
                  OFFSET -3.37035 -0.52449 3.41376
                  CHANNELS 3 Zrotation Xrotation Yrotation
                  End Site
                  {
                    OFFSET -1.78271 -1.18214 1.43049
                  }
                }
              }
              JOINT rIndex1
              {
                OFFSET -7.75947 0.938293 5.60832
                CHANNELS 3 Zrotation Xrotation Yrotation
                JOINT rIndex2
                {
                  OFFSET -2.54057 -0.884171 1.56538
                  CHANNELS 3 Zrotation Xrotation Yrotation
                  End Site
                  {
                    OFFSET -1.62519 -0.234802 1.16502
                  }
                }
              }
              JOINT rMid1
              {
                OFFSET -8.24714 1.18213 3.41376
                CHANNELS 3 Zrotation Xrotation Yrotation
                JOINT rMid2
                {
                  OFFSET -3.10165 -0.590103 1.0647
                  CHANNELS 3 Zrotation Xrotation Yrotation
                  End Site
                  {
                    OFFSET -2.48547 -0.328903 0.83742
                  }
                }
              }
              JOINT rRing1
              {
                OFFSET -8.82822 0.546677 1.51678
                CHANNELS 3 Zrotation Xrotation Yrotation
                JOINT rRing2
                {
                  OFFSET -2.60934 -0.819778 -0.0198488
                  CHANNELS 3 Zrotation Xrotation Yrotation
                  End Site
                  {
                    OFFSET -2.33842 -0.294052 0.168128
                  }
                }
              }
              JOINT rPinky1
              {
                OFFSET -8.27202 -0.0477905 -0.4584
                CHANNELS 3 Zrotation Xrotation Yrotation
                JOINT rPinky2
                {
                  OFFSET -1.82734 -0.647385 -0.700984
                  CHANNELS 3 Zrotation Xrotation Yrotation
                  End Site
                  {
                    OFFSET -1.69225 -0.51767 -0.607171
                  }
                }
              }
            }
          }
        }
      }
      JOINT lCollar
      {
        OFFSET 2.68224 19.2634 -4.8768
        CHANNELS 3 Zrotation Xrotation Yrotation
        JOINT lShldr
        {
          OFFSET 8.77824 -1.95073 1.46304
          CHANNELS 3 Zrotation Xrotation Yrotation
          JOINT lForeArm
          {
            OFFSET 28.1742 -1.7115 0.48768
            CHANNELS 3 Zrotation Xrotation Yrotation
            JOINT lHand
            {
              OFFSET 22.5879 0.773209 7.07136
              CHANNELS 3 Zrotation Xrotation Yrotation
              JOINT lThumb1
              {
                OFFSET 1.2192 -0.487915 3.41376
                CHANNELS 3 Zrotation Xrotation Yrotation
                JOINT lThumb2
                {
                  OFFSET 3.37035 -0.52449 3.41376
                  CHANNELS 3 Zrotation Xrotation Yrotation
                  End Site
                  {
                    OFFSET 1.78271 -1.18214 1.43049
                  }
                }
              }
              JOINT lIndex1
              {
                OFFSET 7.75947 0.938293 5.60832
                CHANNELS 3 Zrotation Xrotation Yrotation
                JOINT lIndex2
                {
                  OFFSET 2.54057 -0.884171 1.56538
                  CHANNELS 3 Zrotation Xrotation Yrotation
                  End Site
                  {
                    OFFSET 1.62519 -0.234802 1.16502
                  }
                }
              }
              JOINT lMid1
              {
                OFFSET 8.24714 1.18213 3.41376
                CHANNELS 3 Zrotation Xrotation Yrotation
                JOINT lMid2
                {
                  OFFSET 3.10165 -0.590103 1.0647
                  CHANNELS 3 Zrotation Xrotation Yrotation
                  End Site
                  {
                    OFFSET 2.48547 -0.328903 0.83742
                  }
                }
              }
              JOINT lRing1
              {
                OFFSET 8.82822 0.546677 1.51678
                CHANNELS 3 Zrotation Xrotation Yrotation
                JOINT lRing2
                {
                  OFFSET 2.60934 -0.819778 -0.0198488
                  CHANNELS 3 Zrotation Xrotation Yrotation
                  End Site
                  {
                    OFFSET 2.33842 -0.294052 0.168128
                  }
                }
              }
              JOINT lPinky1
              {
                OFFSET 8.27202 -0.0477905 -0.4584
                CHANNELS 3 Zrotation Xrotation Yrotation
                JOINT lPinky2
                {
                  OFFSET 1.82734 -0.647385 -0.700984
                  CHANNELS 3 Zrotation Xrotation Yrotation
                  End Site
                  {
                    OFFSET 1.69225 -0.51767 -0.607171
                  }
                }
              }
            }
          }
        }
      }
    }
  }
  JOINT rButtock
  {
    OFFSET -8.77824 4.35084 1.2192
    CHANNELS 3 Zrotation Xrotation Yrotation
    JOINT rThigh
    {
      OFFSET 0 -1.70687 -2.19456
      CHANNELS 3 Zrotation Xrotation Yrotation
      JOINT rShin
      {
        OFFSET 0 -36.8199 0.73152
        CHANNELS 3 Zrotation Xrotation Yrotation
        JOINT rFoot
        {
          OFFSET 0.73152 -45.1104 -5.12064
          CHANNELS 3 Zrotation Xrotation Yrotation
          End Site
          {
            OFFSET -1.1221 -3.69964 12.103
          }
        }
      }
    }
  }
  JOINT lButtock
  {
    OFFSET 8.77824 4.35084 1.2192
    CHANNELS 3 Zrotation Xrotation Yrotation
    JOINT lThigh
    {
      OFFSET 0 -1.70687 -2.19456
      CHANNELS 3 Zrotation Xrotation Yrotation
      JOINT lShin
      {
        OFFSET 0 -36.8199 0.73152
        CHANNELS 3 Zrotation Xrotation Yrotation
        JOINT lFoot
        {
          OFFSET -0.73152 -45.1104 -5.12064
          CHANNELS 3 Zrotation Xrotation Yrotation
          End Site
          {
            OFFSET 1.1221 -3.69964 12.103
          }
        }
      }
    }
  }
}
MOTION
Frames:	4
Frame Time:	0.03333
-0.7548146105444228 38.124381078961996 0.38307959061492186 10.07199764251709 39.345497131347656 13.977007865905762 -9.756669998168945 16.175800323486328 4.0146098136901855 0.29390302300453186 -12.148900032043457 0.8395189642906189 -5.672450542449951 8.875199317932129 -2.642969846725464 1.3173801898956299 -24.88319969177246 -4.255359172821045 -0.0 0.0 -0.0 -0.0 0.0 -0.0 5.724998112296292e-14 -2.2263881547818914e-13 1.2722218027325094e-14 -5.072469234466553 -12.20479965209961 57.870399475097656 -26.866498947143555 -25.90199851989746 60.72419738769531 -0.17281895875930786 11.764599800109863 1.6772797107696533 1.7795902529371688e-09 6.24978957475264e-11 -2.0035585690525437e-10 3.075577126310236e-09 1.0577887871177083e-10 -3.621061228642475e-10 1.7795902529371688e-09 6.24978957475264e-11 -2.0035585690525437e-10 7.7309088706970215 5.474880218505859 0.41731396317481995 1.7795774853723856e-09 6.24978957475264e-11 -2.0034948700065058e-10 2.9055399894714355 0.9651829600334167 0.10290198773145676 1.7795902529371688e-09 6.24978957475264e-11 -2.0035585690525437e-10 10.27859878540039 0.73180091381073 0.025912299752235413 1.7795774853723856e-09 6.250425871323628e-11 -2.003431309738346e-10 2.2216696739196777 -0.7334870100021362 -0.2089199721813202 5.724998112296292e-14 -2.2263881547818914e-13 6.361109013662547e-15 -73.20759582519531 54.467193603515625 -0.35326695442199707 28.297794342041016 -38.364200592041016 -81.03739929199219 3.3018295764923096 -44.75299835205078 8.009328842163086 2.119349806761761e-09 -4.332869618650648e-09 1.8371327792365832e-09 3.5896818850744694e-09 -7.750998953781618e-09 3.2399927185622346e-09 2.119349806761761e-09 -4.3328820531485235e-09 1.8371518750726068e-09 -7.7309088706970215 5.474880218505859 -0.41731396317481995 2.119349806761761e-09 -4.332869618650648e-09 1.8371327792365832e-09 -2.9055399894714355 0.9651829600334167 -0.10290198773145676 2.1193371502192804e-09 -4.3328820531485235e-09 1.8371327792365832e-09 -10.27859878540039 0.73180091381073 -0.025912299752235413 2.119362463304242e-09 -4.3328820531485235e-09 1.8371201226941025e-09 -2.2216696739196777 -0.7334870100021362 0.2089199721813202 -0.0 0.0 -0.0 -50.343196868896484 -65.8311996459961 -41.99679946899414 -2.3205299377441406 71.3451919555664 2.630929708480835 -2.697699785232544 -5.911289691925049 -5.318068981170654 -0.0 0.0 -0.0 15.234898567199707 2.65559983253479 -4.86799955368042 -0.21262098848819733 26.112300872802734 -1.8440301418304443 6.17612886428833 -7.8692193031311035 28.08329963684082
-1.606115301429649 38.438593686444676 0.8058651519483906 10.65300178527832 42.48509979248047 15.221002578735352 -9.94330883026123 16.731599807739258 4.651278972625732 -0.056485388427972794 -12.109099388122559 0.964737057685852 -4.836009502410889 8.907210350036621 -1.636069893836975 -0.2145649492740631 -25.509197235107422 -2.688849687576294 -0.0 0.0 -0.0 -0.0 0.0 -0.0 1.081388532322633e-13 -4.770831624721639e-13 -1.2722218027325094e-13 -5.66478967666626 -9.749970436096191 57.896995544433594 -26.71980094909668 -25.444700241088867 60.00009536743164 -0.21482400596141815 13.090799331665039 1.8727699518203735 1.4598490194472902e-09 8.448697852436737e-10 1.5800485364536598e-09 2.540270660489341e-09 1.4552118399180358e-09 2.719698466435716e-09 1.4598490194472902e-09 8.448697852436737e-10 1.5800485364536598e-09 7.7309088706970215 5.474880218505859 0.41731396317481995 1.4598490194472902e-09 8.448697852436737e-10 1.580061304018443e-09 2.9055399894714355 0.9651829600334167 0.10290198773145676 1.4598617870120734e-09 8.448697852436737e-10 1.5800485364536598e-09 10.27859878540039 0.73180091381073 0.025912299752235413 1.4598490194472902e-09 8.448697852436737e-10 1.580061304018443e-09 2.2216696739196777 -0.7334870100021362 -0.2089199721813202 1.081388532322633e-13 -4.770831624721639e-13 -1.2722218027325094e-13 -64.45429229736328 55.05070114135742 -10.392099380493164 28.259599685668945 -38.7162971496582 -81.64900207519531 3.1915197372436523 -44.17499923706055 7.850118637084961 4.369751227528695e-09 -1.1331100502331992e-08 3.845131324453632e-09 7.4024288920782055e-09 -2.0032500103184248e-08 6.77507072666117e-09 4.369751227528695e-09 -1.1331100502331992e-08 3.84513754170257e-09 -7.7309088706970215 5.474880218505859 -0.41731396317481995 4.369751227528695e-09 -1.1331100502331992e-08 3.845118445866547e-09 -2.9055399894714355 0.9651829600334167 -0.10290198773145676 4.369751227528695e-09 -1.1331100502331992e-08 3.845131324453632e-09 -10.27859878540039 0.73180091381073 -0.025912299752235413 4.369757444777633e-09 -1.1331100502331992e-08 3.845118445866547e-09 -2.2216696739196777 -0.7334870100021362 0.2089199721813202 -0.0 0.0 -0.0 -47.03190231323242 -66.2260971069336 -38.060096740722656 -2.2939000129699707 71.06999969482422 2.5458498001098633 -2.888929843902588 -7.974930763244629 -4.802309513092041 -0.0 0.0 -0.0 16.485998153686523 0.33865198493003845 -6.32375955581665 -0.21802698075771332 25.16160011291504 -1.7565199136734009 4.930019378662109 -6.511040210723877 26.094701766967773
-2.491564270122294 38.76856012524799 1.3332155200286127 11.707991600036621 46.3268928527832 16.95699119567871 -10.151500701904297 17.329200744628906 5.210479736328125 -0.36392396688461304 -12.069499969482422 1.0751399993896484 -3.9908993244171143 9.069360733032227 -0.6838499903678894 -1.6255998611450195 -26.04669761657715 -1.220639944076538 -0.0 0.0 -0.0 -0.0 0.0 -0.0 1.2722218027325094e-13 -5.343331571476539e-13 -1.5266661632790113e-13 -6.183119773864746 -7.039769649505615 57.63569259643555 -26.63409996032715 -25.184797286987305 59.578495025634766 -0.23982805013656616 13.81149959564209 1.9799699783325195 3.727673447695423e-10 1.4635003209306774e-09 2.867072801393533e-09 6.736223800984931e-10 2.5249913271352398e-09 4.9548014580125255e-09 3.727737007963583e-10 1.4635003209306774e-09 2.867072801393533e-09 7.7309088706970215 5.474880218505859 0.41731396317481995 3.7276098874272634e-10 1.4635003209306774e-09 2.867079018642471e-09 2.9055399894714355 0.9651829600334167 0.10290198773145676 3.727737007963583e-10 1.4635003209306774e-09 2.867072801393533e-09 10.27859878540039 0.73180091381073 0.025912299752235413 3.727673447695423e-10 1.4635003209306774e-09 2.867079018642471e-09 2.2216696739196777 -0.7334870100021362 -0.2089199721813202 1.2722218027325094e-13 -5.343331571476539e-13 -1.5266661632790113e-13 -54.18349838256836 55.36819839477539 -22.09499740600586 28.211198806762695 -39.10230255126953 -82.32759857177734 3.1400997638702393 -43.918697357177734 7.777919292449951 4.945698517389019e-09 -1.5018903454233623e-08 4.623978977491561e-09 8.370818704861449e-09 -2.642269869568281e-08 8.135502049810839e-09 4.945692300140081e-09 -1.5018903454233623e-08 4.623991856078646e-09 -7.7309088706970215 5.474880218505859 -0.41731396317481995 4.945698517389019e-09 -1.5018903454233623e-08 4.623966542993685e-09 -2.9055399894714355 0.9651829600334167 -0.10290198773145676 4.945698517389019e-09 -1.5018903454233623e-08 4.623978977491561e-09 -10.27859878540039 0.73180091381073 -0.025912299752235413 4.945698517389019e-09 -1.5018903454233623e-08 4.623966542993685e-09 -2.2216696739196777 -0.7334870100021362 0.2089199721813202 -0.0 0.0 -0.0 -43.26869583129883 -66.29209899902344 -33.6427001953125 -2.2562599182128906 70.69609832763672 2.4336800575256348 -3.13634991645813 -9.697009086608887 -4.731629848480225 -0.0 0.0 -0.0 17.8633975982666 -2.7593297958374023 -7.5573296546936035 -0.21313998103141785 24.63279914855957 -1.658409833908081 3.610919713973999 -4.683050155639648 23.942899703979492
-3.4651914078866275 39.132844849536035 1.9987632933806712 13.170992851257324 51.02549743652344 18.950998306274414 -10.1239013671875 18.107297897338867 5.350550651550293 -0.42579591274261475 -12.016399383544922 1.1059000492095947 -3.648240327835083 9.024930000305176 0.3231000006198883 -2.5164997577667236 -26.186798095703125 0.5619439482688904 -0.0 0.0 -0.0 -0.0 0.0 -0.0 8.905552619127566e-14 1.908332704098764e-13 -2.9897211008961255e-13 -6.726660251617432 -4.1336798667907715 57.39429473876953 -26.611398696899414 -25.118499755859375 59.48689270019531 -0.21268002688884735 13.049399375915527 1.8664897680282593 1.7374096605848877e-10 5.477551190402608e-10 1.9260802675002964e-10 3.035711959586962e-10 9.52219858518788e-10 3.399758252697893e-10 1.7374733596309255e-10 5.477614473115011e-10 1.9259530081860987e-10 7.7309088706970215 5.474880218505859 0.41731396317481995 1.7373461003167279e-10 5.477551190402608e-10 1.9260802675002964e-10 2.9055399894714355 0.9651829600334167 0.10290198773145676 1.7374733596309255e-10 5.477551190402608e-10 1.9260165684542585e-10 10.27859878540039 0.73180091381073 0.025912299752235413 1.7374096605848877e-10 5.477551190402608e-10 1.9260802675002964e-10 2.2216696739196777 -0.7334870100021362 -0.2089199721813202 8.905552619127566e-14 1.908332704098764e-13 -2.9897211008961255e-13 -42.83530044555664 54.597896575927734 -35.31439971923828 28.15499496459961 -39.50250244140625 -83.03339385986328 3.0547306537628174 -43.44040298461914 7.65101957321167 1.3888717953491891e-09 -4.891851812516279e-09 1.6841608108109085e-09 2.3358501799464193e-09 -8.62591864603246e-09 2.9501296960887657e-09 1.3888717953491891e-09 -4.891851812516279e-09 1.6841672501044513e-09 -7.7309088706970215 5.474880218505859 -0.41731396317481995 1.3888717953491891e-09 -4.891851812516279e-09 1.6841608108109085e-09 -2.9055399894714355 0.9651829600334167 -0.10290198773145676 1.3888717953491891e-09 -4.891851812516279e-09 1.6841608108109085e-09 -10.27859878540039 0.73180091381073 -0.025912299752235413 1.388878234642732e-09 -4.891851812516279e-09 1.6841481542684278e-09 -2.2216696739196777 -0.7334870100021362 0.2089199721813202 -0.0 0.0 -0.0 -39.23209762573242 -65.90679168701172 -29.03239631652832 -2.1910598278045654 70.10399627685547 2.2765400409698486 -3.3482697010040283 -11.160698890686035 -4.715250015258789 -0.0 0.0 -0.0 19.338499069213867 -6.918010234832764 -8.550069808959961 -0.20222099125385284 24.80219841003418 -1.5392699241638184 2.3342299461364746 -2.33351993560791 21.787397384643555
